<?xml version="1.0" encoding="utf-8"?>
<!-- Generator: Adobe Illustrator 25.2.1, SVG Export Plug-In . SVG Version: 6.00 Build 0)  -->
<svg version="1.1" id="Capa_1" xmlns="http://www.w3.org/2000/svg" xmlns:xlink="http://www.w3.org/1999/xlink" x="0px" y="0px"
	 viewBox="0 0 160 160" style="enable-background:new 0 0 160 160;" xml:space="preserve">
<style type="text/css">
	.st0{fill:none;stroke:#FFFFFF;stroke-width:6;stroke-miterlimit:10;}
	.st1{fill:#FFFFFF;}
</style>
<g>
	<g>
		<circle class="st0" cx="61.9" cy="42.6" r="15.6"/>
		<path class="st1" d="M42.8,46.2H29.1c-2,0-3.6-1.6-3.6-3.6l0,0c0-2,1.6-3.6,3.6-3.6h13.7"/>
		<path class="st1" d="M81.5,39h50c2.2,0,4,1.6,4,3.6l0,0c0,2-1.8,3.6-4,3.6h-50"/>
	</g>
	<g>
		<circle class="st0" cx="61.9" cy="117.4" r="15.6"/>
		<path class="st1" d="M42.8,121H29.1c-2,0-3.6-1.6-3.6-3.6l0,0c0-2,1.6-3.6,3.6-3.6h13.7"/>
		<path class="st1" d="M81.5,113.8h50c2.2,0,4,1.6,4,3.6l0,0c0,2-1.8,3.6-4,3.6h-50"/>
	</g>
	<g>
		<circle class="st0" cx="98.1" cy="79.9" r="15.6"/>
		<path class="st1" d="M117.2,76.3h13.7c2,0,3.6,1.6,3.6,3.6l0,0c0,2-1.6,3.6-3.6,3.6h-13.7"/>
		<path class="st1" d="M78.5,83.5h-50c-2.2,0-4-1.6-4-3.6l0,0c0-2,1.8-3.6,4-3.6h50"/>
	</g>
</g>
</svg>
