<?xml version="1.0" encoding="utf-8"?>
<!-- Generator: Adobe Illustrator 25.2.1, SVG Export Plug-In . SVG Version: 6.00 Build 0)  -->
<svg version="1.1" id="Capa_1" xmlns="http://www.w3.org/2000/svg" xmlns:xlink="http://www.w3.org/1999/xlink" x="0px" y="0px"
	 viewBox="0 0 160 160" style="enable-background:new 0 0 160 160;" xml:space="preserve">
<g id="TFNtNW_1_">
	<g>
		<path d="M13.4,20.7c1.4-2.6,3.6-3.5,6.6-3.3c2.6,0.2,5.3,0,7.9,0c5.4,0.1,8.9,3.1,9.9,8.3c0.7,3.9,1.6,7.7,2,11.7
			c0.3,2.7,1.4,3.3,4,3.3c30.5-0.1,61-0.1,91.6-0.1c9,0,12.6,4.5,11,13.2c-2.4,12.7-4.6,25.4-6.9,38.2c-1.1,6.1-4.2,8.7-10.4,8.7
			c-24.4,0-48.7,0-73.1,0c-1.3,0-2.6,0-4.4,0c0.6,3.3,1.1,6.3,1.6,9.5c1.5,0,2.8,0,4.1,0c22.3,0,44.6,0,66.9,0
			c8.8,0,16,6.1,16.6,14.1c0.8,9.3-4.9,16.5-14,18c-9.9,1.6-19.6-7.9-18.1-17.9c0.2-1.6,0.7-3.2,1.1-5c-13.2,0-26.2,0-38.8,0
			c0,3.5,0.5,7-0.1,10.3c-1.2,6.8-6.7,11.6-13.8,12.6c-5.9,0.9-12.6-2.6-15.8-8c-3.3-5.7-2.8-13.1,1.5-18.2c1.4-1.7,1.7-3.1,1.3-5.3
			c-5-27-9.9-54.1-14.8-81.2c-0.2-1-0.4-1.9-0.7-3.2c-3,0-5.9-0.2-8.8,0S15,25.5,13.6,23C13.4,22.5,13.4,21.6,13.4,20.7z M137.6,50
			c-32,0-63.5,0-95.5,0c2.6,14.1,5.1,27.9,7.6,41.6c27,0,53.6,0,80.4,0C132.5,77.7,135,64,137.6,50z M55.2,133.4
			c3.7-0.1,6.9-3.3,6.9-7s-3.2-6.9-7-6.9c-3.9,0-7.1,3.2-7,7.2C48.2,130.3,51.5,133.4,55.2,133.4z M124.7,133.4
			c3.8-0.1,6.8-3.2,6.8-7s-3.1-6.9-6.9-6.9c-3.9,0-7.2,3.3-7.1,7.1C117.7,130.3,121,133.4,124.7,133.4z"/>
	</g>
</g>
</svg>
