<?xml version="1.0" encoding="utf-8"?>
<!-- Generator: Adobe Illustrator 25.2.1, SVG Export Plug-In . SVG Version: 6.00 Build 0)  -->
<svg version="1.1" id="Capa_1" xmlns="http://www.w3.org/2000/svg" xmlns:xlink="http://www.w3.org/1999/xlink" x="0px" y="0px"
	 viewBox="0 0 160 160" style="enable-background:new 0 0 160 160;" xml:space="preserve">
<style type="text/css">
	.st0{fill:#232323;}
	.st1{fill:#FFFFFF;}
</style>
<circle class="st0" cx="80" cy="80" r="76.5"/>
<g id="nGzhlP.tif">
	<g>
		<path class="st1" d="M45.3,91.6c6.8-3,12.8-5.6,19.9-8.7c-1.2,3.7-1.9,6-3.1,9.6c4.6-3.2,8.2-5.7,13-9c-2,10.3-3.8,19.4-5.6,28.3
			c-1.3-0.8-2.4-2.1-3.6-2.1c-5.9-0.1-12-1.1-17.4,2.6c-0.4,0.3-0.9,0.5-1.4,0.6c-1.8,0.3-3.7,0.6-5.5,0.8c0.2-1.9,0.3-3.9,0.5-6.2
			c-8.6-5.8-9.4-9-4.2-19.4c1.8-3.6,0.5-6.1-3.9-7.9c-6.7-2.8-8.7-10.1-4-14.8c4.9-4.8,13.1-2.8,14.5,4c0.8,3.8,0.6,7.9,0.7,11.9
			C45.4,84.6,45.3,87.9,45.3,91.6z"/>
		<path class="st1" d="M117.9,107.4c0.3,2.4,0.6,4.2,0.8,6c-1.8-0.2-3.9,0.2-5.4-0.6c-5.8-3.4-12-3.6-18.3-3.2
			c-1.4,0.1-2.8,0.9-4.5,1.5c-1.7-8.3-3.5-17.3-5.6-27.8c4.7,3.4,8.4,6,12,8.6c0.2-0.2,0.5-0.4,0.7-0.7c-0.8-2.2-1.6-4.5-2.9-8.2
			c7.2,3.1,13.3,5.7,20,8.6c0-2.7,0-5.1,0-7.5c0.1-4.5-0.1-9,0.4-13.4c0.5-4.7,4-7.7,8.2-7.9c4.1-0.2,8,2.8,8.8,6.6
			c1,4.7-0.9,8.5-5.5,10.5c-6.2,2.7-6.8,4.5-3.5,10C127.7,96.9,125.8,102.6,117.9,107.4z"/>
		<path class="st1" d="M49.5,83.9c0-3.4,0.6-6.7-0.1-9.6c-0.9-4-2.9-7.8-4.2-11.7c-0.5-1.6-1.2-4-0.4-4.9c2.6-3.2,5.4-6.6,8.8-8.7
			c2.9-1.7,7-2.7,10.3-2.2c5.3,0.7,10.4,2.9,15.8,4.5c-3.6,8.2-7.2,16.4-10.9,24.5c-0.5,1.1-1.5,2.3-2.5,2.7
			C60.9,80.4,55.6,82,49.5,83.9z"/>
		<path class="st1" d="M80.5,51.3c5.2-1.6,9.9-3.3,14.7-4.5c5-1.3,9.5-0.4,13.3,3.5c1.3,1.3,2.5,2.7,3.9,3.8c4,3.3,5.6,6.1,1,10.7
			c-2.1,2.1-2.2,6.4-2.6,9.7c-0.4,2.9-0.1,5.9-0.1,9.2c-5.9-1.8-11.6-3.5-17.1-5.4c-0.9-0.3-1.7-1.5-2.1-2.5
			C87.7,67.8,84.1,59.6,80.5,51.3z"/>
	</g>
</g>
</svg>
